<!-- Generator: Adobe Illustrator 21.0.2, SVG Export Plug-In  -->
<svg version="1.1"
	 xmlns="http://www.w3.org/2000/svg" xmlns:xlink="http://www.w3.org/1999/xlink" xmlns:a="http://ns.adobe.com/AdobeSVGViewerExtensions/3.0/"
	 x="0px" y="0px" width="58.1px" height="46.7px" viewBox="0 0 58.1 46.7" style="enable-background:new 0 0 58.1 46.7;"
	 xml:space="preserve">
<style type="text/css">
	.st0{fill:none;stroke:#FFFFFF;stroke-width:1.5;stroke-linecap:round;stroke-linejoin:round;stroke-miterlimit:10;}
</style>
<defs>
</defs>
<circle class="st0" cx="23" cy="41.7" r="4.2"/>
<circle class="st0" cx="48.5" cy="41.7" r="4.2"/>
<line class="st0" x1="27.6" y1="41.7" x2="43.9" y2="41.7"/>
<polyline class="st0" points="52.7,41.7 57.4,41.7 57.4,33.4 53.8,30.6 51,23.2 39.9,23.2 39.9,41.3 "/>
<polyline class="st0" points="39.9,33.6 13.1,33.6 13.1,41.7 18.6,41.7 "/>
<polyline class="st0" points="13.1,33.6 13.1,16.9 39.9,16.9 39.9,23.2 "/>
<polyline class="st0" points="43.2,25.6 43.2,31.3 50.9,31.3 "/>
<line class="st0" x1="43.3" y1="34" x2="46" y2="34"/>
<line class="st0" x1="19.2" y1="28.3" x2="6.5" y2="28.3"/>
<line class="st0" x1="19.2" y1="23.3" x2="0.8" y2="23.3"/>
<path class="st0" d="M12.5,19.4c-5.2,0-9.3-4.2-9.3-9.3s4.2-9.3,9.3-9.3s9.3,4.2,9.3,9.3c0,1.6-0.4,3-1.1,4.3"/>
<polyline class="st0" points="12.2,4.1 12.2,10.5 16.3,13.6 "/>
</svg>