<!-- Generator: Adobe Illustrator 21.0.2, SVG Export Plug-In  -->
<svg version="1.1"
	 xmlns="http://www.w3.org/2000/svg" xmlns:xlink="http://www.w3.org/1999/xlink" xmlns:a="http://ns.adobe.com/AdobeSVGViewerExtensions/3.0/"
	 x="0px" y="0px" width="51.1px" height="47.2px" viewBox="0 0 51.1 47.2" style="enable-background:new 0 0 51.1 47.2;"
	 xml:space="preserve">
<style type="text/css">
	.st0{fill:none;stroke:#FFFFFF;stroke-width:1.5;stroke-linecap:round;stroke-linejoin:round;stroke-miterlimit:10;}
	.st1{fill:#FFFFFF;stroke:#FFFFFF;stroke-miterlimit:10;}
</style>
<defs>
</defs>
<g>
	<path class="st0" d="M18.2,0.8C15.3,0.8,13,3.1,13,6s2.3,5.2,5.2,5.2s5.3-1.8,6-4.5c0.4-1,1.3-3.6,4.6-3.6"/>
	<path class="st0" d="M31.9,0.8c2.9,0,5.2,2.3,5.2,5.2s-2.3,5.2-5.2,5.2s-5.3-1.8-6-4.5c-0.4-1-1.3-3.6-4.6-3.6"/>
</g>
<polyline class="st0" points="40,5.5 50.1,5.5 50.1,14.5 0.8,14.5 0.8,5.5 10,5.5 "/>
<g>
	<rect x="0.9" y="42" class="st0" width="49.3" height="4.5"/>
	<polyline class="st0" points="9.7,42.1 9.7,24.3 18.7,24.3 18.7,42.1 	"/>
	<polyline class="st0" points="23.7,42.1 23.7,24.3 41.4,24.3 41.4,42.1 	"/>
	<line class="st0" x1="3.9" y1="19.6" x2="3.9" y2="41.1"/>
	<line class="st0" x1="46.9" y1="19.6" x2="46.9" y2="41.1"/>
	<line class="st0" x1="27.5" y1="30.5" x2="30.4" y2="27.6"/>
	<line class="st0" x1="27.5" y1="34.5" x2="34" y2="28"/>
	<rect x="11.5" y="32.8" class="st1" width="1.5" height="1.5"/>
</g>
<g>
	<path class="st0" d="M6.2,17c0,1.5-1.2,2.7-2.7,2.7h0c-1.5,0-2.7-1.2-2.7-2.7v-2.2"/>
	<path class="st0" d="M11.8,17c0,1.5-1.2,2.7-2.7,2.7h0c-1.5,0-2.7-1.2-2.7-2.7v-2.2"/>
	<path class="st0" d="M17.3,17c0,1.5-1.2,2.7-2.7,2.7h0c-1.5,0-2.7-1.2-2.7-2.7v-2.2"/>
	<path class="st0" d="M22.8,17c0,1.5-1.2,2.7-2.7,2.7h0c-1.5,0-2.7-1.2-2.7-2.7v-2.2"/>
	<path class="st0" d="M28.3,17c0,1.5-1.2,2.7-2.7,2.7h0c-1.5,0-2.7-1.2-2.7-2.7v-2.2"/>
	<path class="st0" d="M33.8,17c0,1.5-1.2,2.7-2.7,2.7h0c-1.5,0-2.7-1.2-2.7-2.7v-2.2"/>
	<path class="st0" d="M39.3,17c0,1.5-1.2,2.7-2.7,2.7h0c-1.5,0-2.7-1.2-2.7-2.7v-2.2"/>
	<path class="st0" d="M44.8,17c0,1.5-1.2,2.7-2.7,2.7h0c-1.5,0-2.8-1.2-2.8-2.7v-2.2"/>
	<path class="st0" d="M44.8,14.8V17c0,1.5,1.2,2.7,2.8,2.7h0c1.5,0,2.7-1.2,2.7-2.7v-2.2"/>
</g>
</svg>