<!-- Generator: Adobe Illustrator 21.0.2, SVG Export Plug-In  -->
<svg version="1.1"
	 xmlns="http://www.w3.org/2000/svg" xmlns:xlink="http://www.w3.org/1999/xlink" xmlns:a="http://ns.adobe.com/AdobeSVGViewerExtensions/3.0/"
	 x="0px" y="0px" width="63px" height="36px" viewBox="0 0 63 36" style="enable-background:new 0 0 63 36;" xml:space="preserve">
<style type="text/css">
	.st0{fill:#FFFFFF;}
</style>
<defs>
</defs>
<g>
	<path class="st0" d="M57.6,1.5l0.9,0l0.2,1.1l-0.1,0.8c0,0-0.6,0.8-1,0.8s-0.6,1.4-0.6,1.4l0.1,1.1c0,0,1.2-0.8,1.4-0.8
		s0.8,0.6,0.8,0.8c0,0.2-0.3,1.6-0.3,1.6l0,1.2l-0.9,1.6l0.4,1.2l-0.3,0.9l0.9,0.8l1.1,0.8c0,0,0.3,1.2,0.3,1.5s0.2,1.1,0.3,1.5
		s0.4,1.9,0.5,2c0,0,0,0-0.1,0c-0.4,0-1.7-0.2-1.7-0.2l-1.2-1.6L57,15.9v-1.6c0,0-0.2-1.8-0.2-1.9s-1.4-1-1.4-1l-0.2,1.7
		c0,0-0.2,1.1-0.2,1.4s0.3,2.2,0.3,2.2l-2,1.1c0,0-1.9,1.4-1.9,1.5s-0.7,4.2-0.7,4.2l1,0.8l0.9-1.1h1.1l0.3,1.7c0,0,0.8,1.3,0.8,1.5
		s0.2,3,0.2,3l-0.4,3.1l-0.8,1l-0.8,0.1c0,0-0.8,1.2-0.9,1.2s-0.7-0.7-0.7-0.9c0-0.2,0.5-2,0.5-2l0.9-1.3l-0.4-1.8l-1.6,1l-1.4-0.7
		l-1.1,0l-1-1.3l-1.7-0.8L44,27.5L44,30.1l-1.1,0.7l-2.5,0.1l-2.6,0.2l-2.3-0.3l-1.4-1.3c0,0-1.2,1.2-1.4,1.3c-0.1,0-0.3,0-0.6,0
		c-0.6,0-1.4,0-1.4,0L29.6,30l-1.9,0.5l-1.5-0.3l-1-1.4l-1.6-1l-1-2.7l-1.8-1.2l-0.8-1l-3.7-1.2l-1.2,0.8l-0.4,1.2l-1.1-0.9
		l-1.4-0.9l-0.6-1.3c0,0-0.9-0.7-1.1-0.9c-0.1-0.2-1.2-0.3-1.2-0.3l-0.6,0.6L7.9,19l-0.8,0.8l0.2,1.4l-0.5,1L5.6,22L5,23.4l-0.8,0.5
		l-0.7,0.8l-0.4-3.1L2.2,21l0-1.8l-0.7-0.3l0.4-1.2c0,0-0.7-1-0.1-1.4c0.1-0.1,0.3-0.1,0.4-0.1c0.4,0,0.7,0.3,1,0.3
		c0.1,0,0.2,0,0.4,0c0.5,0,1.4,0,1.7-0.2c0.4-0.3,0.8-1.2,0.7-1.6c-0.1-0.3-0.8-0.6-0.5-1.6c0.4-1,0.5-1.4,0.4-1.6
		c-0.1-0.2-1.2-0.5-0.6-0.9c0.2-0.2,0.5-0.2,0.7-0.2c0.5,0,0.9,0.2,1.1,0.2c0,0,0,0,0,0c0.1-0.1,0.9-1,0.9-1L7.7,8.4L9,7.1
		c0,0,0.5-0.5,1-0.5c0.2,0,0.3,0,0.4,0.2C10.6,6.9,10.7,7,10.8,7c0.5,0,1.1-0.5,1.1-0.5s0.7,0.2,1.2,0.2c0.2,0,0.3,0,0.4-0.1
		c0.3-0.3,0.8,0,1-0.8c0.2-0.8,1.4-1.2,1.4-1.2s1.2-0.6,1.6-1c0.2-0.2,0.6-0.3,1-0.3c0.3,0,0.6,0.1,0.6,0.1l0.3,2.1
		c0,0-0.3,1.2-0.6,1.5c-0.3,0.3-1.4,0.6-1.4,0.6L17,6.7l-0.4-1.2c0,0,0,0.8-1.1,1.6c-1.1,0.8-0.6,1.4-0.6,1.4s0.4-0.1,0.8-0.1
		c0.1,0,0.3,0,0.4,0c0.6,0.1,1.3,0.6,1.3,0.6l1.9-0.7l0.7,1.3L21,9.8l1.8,0.8c0,0,0.6,0.3,1.1,0.3c0.1,0,0.2,0,0.2-0.1
		c0.1,0,0.1-0.1,0.2-0.1c0.3,0,0.8,0.4,0.8,0.8c0,0.4-0.1,1.3,0.1,1.3c0,0,0.1,0,0.1-0.1c0.3-0.5,0.7-1.7,1.4-2.4
		c0.7-0.8,1.7-0.8,1.7-0.8l-0.8,1.7l0.5,0.7l1.2-0.8l0.8,0.4l1.2-1.4l2.5-0.9c0,0,0.2,0,0.4,0c0.4,0,1.1-0.1,1.2-0.6
		c0.3-0.8,0.6-1.4,0.6-1.4l1.4,0.8c0,0,0.6,0.5,0.4,1c-0.3,0.6-0.8,2-0.8,2h1.4l1.5-0.2l1.4-0.7l0.6,0l1.4,1.4c0,0,1-0.4,1.2-0.7
		c0.3-0.3,0.8-1.4,0.8-1.4l1.9-0.8l1.1-0.2l0.6-1l1.1,0L52,6.5l1.3-0.7l-0.5-0.9L54,3.8l1.7-1l1.5-0.3L57.6,1.5 M28.4,9.6L28.4,9.6
		 M57.6,0c-0.6,0-1.2,0.4-1.4,1l-0.1,0.2l-0.7,0.2c-0.2,0-0.3,0.1-0.4,0.2l-1.7,1c-0.1,0.1-0.2,0.1-0.2,0.2l-1.2,1.1
		c-0.4,0.3-0.5,0.8-0.5,1.3l0,0c-0.1,0-0.1,0.1-0.2,0.1l-1.3,0.9l-0.7,0c-0.5,0-0.9,0.3-1.2,0.7l-0.3,0.4l-0.5,0.1
		c-0.1,0-0.2,0.1-0.4,0.1L45,8.2c-0.3,0.1-0.6,0.4-0.8,0.7c-0.1,0.3-0.3,0.6-0.4,0.9l-0.5-0.5C43,9,42.6,8.8,42.2,8.8
		c0,0-0.1,0-0.1,0l-0.6,0c-0.2,0-0.4,0.1-0.5,0.1l-1.2,0.6l-0.2,0c0.4-1.1-0.2-2.1-0.9-2.6c0,0-0.1-0.1-0.1-0.1l-1.4-0.8
		c-0.2-0.1-0.5-0.2-0.8-0.2c-0.2,0-0.3,0-0.5,0.1c-0.4,0.1-0.7,0.4-0.9,0.8c0,0-0.2,0.5-0.5,1.1c-0.1,0-0.2,0-0.2,0
		c-0.1,0-0.1,0-0.2,0c-0.2,0-0.4,0-0.5,0.1l-2.5,0.9c-0.2,0.1-0.4,0.2-0.6,0.4l-0.4,0.4c0,0,0-0.1,0-0.1c0-0.8-0.7-1.5-1.5-1.5
		c0,0,0,0,0,0c0,0,0,0,0,0c0,0-0.1,0-0.1,0c-0.3,0-1.7,0.2-2.7,1.3c-0.1,0.1-0.1,0.1-0.2,0.2c-0.3-0.2-0.7-0.3-1.1-0.3
		c-0.2,0-0.3,0-0.5,0.1c-0.1,0-0.2-0.1-0.3-0.1c0,0-0.1,0-0.1-0.1l-1.8-0.8c-0.1,0-0.1-0.1-0.2-0.1l-0.3-0.1l-0.4-0.8
		c-0.1-0.2-0.2-0.3-0.3-0.4c0.2-0.4,0.3-0.9,0.4-1.3c0-0.2,0.1-0.4,0-0.6l-0.3-2.1c-0.1-0.6-0.6-1.2-1.2-1.3c-0.1,0-0.5-0.1-0.9-0.1
		c-0.9,0-1.6,0.2-2,0.7c-0.1,0.1-0.7,0.4-1.1,0.6c-0.4,0.2-1.7,0.7-2.2,1.9c0,0-0.1,0-0.1,0.1c-0.2,0-0.4-0.1-0.6-0.1
		C12.2,5,12.1,5,11.9,5c-0.4,0-0.7,0.1-1,0.4c0,0,0,0,0,0c-0.3-0.1-0.6-0.2-0.9-0.2c-1,0-1.8,0.6-2,0.8C8,6,8,6,7.9,6L6.6,7.3
		c-0.4,0.4-0.6,1-0.3,1.6l0,0C6.2,9,6.1,9,6.1,9C5.5,9,4.9,9.1,4.5,9.4c-0.8,0.6-0.8,1.3-0.8,1.6c0,0.6,0.3,1,0.6,1.2
		c0,0.1-0.1,0.2-0.1,0.4C3.7,13.7,4,14.5,4.4,15c-0.2,0-0.4,0-0.7,0l-0.2,0c-0.3-0.1-0.7-0.3-1.2-0.3c-0.4,0-0.8,0.1-1.2,0.4
		c-0.5,0.3-0.8,0.8-0.9,1.3c-0.1,0.5,0,1.1,0.2,1.5l-0.2,0.6c-0.2,0.7,0,1.4,0.6,1.8l0,0.9c0,0.5,0.3,1,0.7,1.2l0.3,0.2L2,24.8
		c0.1,0.6,0.5,1.1,1,1.2c0.1,0,0.3,0.1,0.4,0.1c0.4,0,0.8-0.2,1.1-0.5L5.1,25l0.6-0.4C6,24.5,6.2,24.3,6.3,24l0.1-0.3l0.1,0
		c0.1,0,0.2,0,0.3,0c0.6,0,1.1-0.3,1.3-0.8l0.5-1c0.1-0.2,0.2-0.4,0.2-0.6c0,0,0.1,0,0.1,0c0.4,0,0.8-0.1,1.1-0.4
		c0.2,0.1,0.4,0.3,0.6,0.5l0.4,1c0.1,0.3,0.3,0.5,0.5,0.6l1.3,0.8l1,0.9c0.3,0.2,0.6,0.4,1,0.4c0.1,0,0.3,0,0.4-0.1
		c0.5-0.1,0.9-0.5,1-1l0.2-0.7l0.2-0.1l2.5,0.8l0.5,0.6c0.1,0.1,0.2,0.2,0.3,0.3l1.4,1l0.8,2.2c0.1,0.3,0.3,0.6,0.6,0.7l1.3,0.9
		L25,31c0.2,0.3,0.5,0.5,0.9,0.6l1.5,0.3c0.1,0,0.2,0,0.3,0c0.1,0,0.2,0,0.4,0l1.2-0.3l0.5,0.4c0.3,0.2,0.6,0.3,0.9,0.3
		c0,0,0.8,0,1.4,0c0.6,0,0.8,0,1-0.1c0.3-0.1,0.5-0.1,1-0.6l0.3,0.3c0.2,0.2,0.5,0.4,0.9,0.4l2.3,0.3c0.1,0,0.1,0,0.2,0
		c0,0,0.1,0,0.1,0l2.6-0.2l2.4-0.1c0.3,0,0.5-0.1,0.7-0.2l1.1-0.7c0.4-0.3,0.7-0.7,0.7-1.2l0.1-1.7l0.2-0.1l0.7,0.4l0.8,1
		c0.3,0.4,0.7,0.6,1.2,0.6c0,0,0,0,0.1,0l0.8,0l1.1,0.5c0.1,0.1,0.2,0.1,0.4,0.1c0,0.1-0.1,0.1-0.1,0.2C50,33.3,50,33.5,50,33.7
		c0,0.9,1.1,2.4,2.2,2.4c0.8,0,1.2-0.5,1.8-1.3l0.1,0c0.4,0,0.8-0.2,1-0.5l0.8-1c0.2-0.2,0.3-0.5,0.3-0.7l0.4-3.1c0-0.1,0-0.2,0-0.3
		c-0.1-3-0.2-3.3-0.3-3.5c0-0.1-0.1-0.3-0.8-1.5l-0.3-1.4c-0.1-0.7-0.8-1.2-1.5-1.2h-1.1c0,0,0,0-0.1,0c0.1-0.8,0.2-1.4,0.3-1.7
		c0.3-0.3,0.8-0.6,1.3-1l2-1.1c0.1-0.1,0.2-0.1,0.3-0.2l0.8,1.3c0,0,0,0.1,0.1,0.1l1.2,1.6c0.2,0.3,0.6,0.5,0.9,0.6
		c0.5,0.1,1.5,0.3,2,0.3c0.9,0,1.3-0.6,1.4-0.8c0.2-0.4,0.2-0.9,0.1-1.3c0-0.1-0.1-0.5-0.1-0.7c-0.1-0.7-0.2-1.1-0.3-1.3
		c0-0.1-0.1-0.4-0.1-0.6c0-0.3-0.1-0.5-0.1-0.8c0-0.2-0.2-0.8-0.3-1.4c-0.1-0.4-0.3-0.7-0.6-0.9l-1.1-0.7l-0.1-0.1
		c0.1-0.3,0.1-0.6,0-0.9l-0.2-0.6l0.6-1c0.1-0.2,0.2-0.5,0.2-0.7l0-1.1C61.1,6.9,61,6.7,61,6.4c-0.1-0.4-0.7-1.2-1.4-1.7
		c0.1-0.2,0.2-0.3,0.3-0.5c0.1-0.2,0.2-0.4,0.2-0.7l0.1-0.8c0-0.1,0-0.3,0-0.4L60,1.3c-0.1-0.7-0.7-1.2-1.4-1.2L57.6,0
		C57.6,0,57.6,0,57.6,0L57.6,0z"/>
</g>
</svg>