<svg xmlns="http://www.w3.org/2000/svg" xmlns:xlink="http://www.w3.org/1999/xlink" viewBox="0 0 45.2 24.7"><style>.st0,.st1{clip-path:url(#SVGID_2_);fill:none;stroke:#f49ac2;stroke-width:.5;stroke-linecap:round;stroke-linejoin:round;stroke-miterlimit:10}.st1{stroke:#914c97}</style><defs><path id="SVGID_1_" d="M0 0h45.2v24.7H0z"/></defs><clipPath id="SVGID_2_"><use xlink:href="#SVGID_1_" overflow="visible"/></clipPath><path class="st0" d="M25.8 9.3s.8 2.6.8 5.8c0 3.3-1.3 6.6-5 6.6s-7.3-3.4-7.3-3.4 1.1-4.5 4.4-6.8c3.3-2.1 7.1-2.2 7.1-2.2z"/><path class="st0" d="M15.2 19s1-4.2 4.1-6.3c3.1-2 6.6-2.1 6.6-2.1M1 9.3s-.8 2.6-.8 5.8c0 3.3 1.3 6.6 5 6.6s7.3-3.4 7.3-3.4-1.1-4.5-4.4-6.8C4.8 9.4 1 9.3 1 9.3z"/><path class="st0" d="M11.6 19s-1-4.2-4.1-6.3c-3.1-2-6.6-2.1-6.6-2.1M14.1 18.2h-1.4M14.9 16.1h-3.1"/><path class="st0" d="M25.9 18.7l-.4 5.8s-6.9-1.6-12.4-1.6c-5.4 0-12 1.6-12 1.6l-.4-5.8"/><path class="st0" d="M25.6 23.4S20.4 22 13 22c-7.4 0-11.7 1.5-11.7 1.5M25.7 9.1V.2l-1.1.9v8.2M25.7 8.1h-.9M1 9.1V.3l1.2.8v8.2M1.1 8.1H2"/><path class="st1" d="M27.8 14c.5-.7 1.1-1.4 1.9-1.9 2.8-1.9 6.1-2 6.1-2s.7 2.2.7 5-1.1 5.7-4.3 5.7c-1.6 0-4-1.3-5.1-2"/><path class="st1" d="M27.8 15.8c.5-1 1.3-2 2.4-2.7 2.6-1.7 5.6-1.8 5.6-1.8M36 18.2l-.5 5.3s-4.7-.9-8.6-1.2M35.5 22.6s-3.8-1-8.6-1.3M35.8 9.9V2.4l-1 .6v7.1M35.7 9.1h-.8M37.5 14.4c.4-.6 1-1.2 1.6-1.6 2.4-1.6 5.2-1.7 5.2-1.7s.6 1.9.6 4.3-.9 4.8-3.6 4.8c-1.4 0-3.4-1.1-4.4-1.7"/><path class="st1" d="M37.6 15.9c.5-.8 1.1-1.7 2.1-2.3 2.2-1.5 4.8-1.5 4.8-1.5M44.5 18l-.4 4.5s-4-.8-7.3-1.1M44.1 21.7s-3.2-.9-7.3-1.1M44.4 10.9V4.5l-1.1.6v6M44.3 10.2h-.9"/></svg>