<svg xmlns="http://www.w3.org/2000/svg" xmlns:xlink="http://www.w3.org/1999/xlink" viewBox="0 0 32.2 30.9"><style>.st0,.st1,.st2{clip-path:url(#SVGID_2_)}.st0{stroke:#914c97;stroke-width:.5;stroke-linecap:round;stroke-linejoin:round;stroke-miterlimit:10;fill:none}.st1,.st2{fill:#914c97}.st2{fill:none;stroke:#f49ac2;stroke-width:.5;stroke-linecap:round;stroke-linejoin:round;stroke-miterlimit:10}</style><defs><path id="SVGID_1_" d="M0 0h32.2v30.9H0z"/></defs><clipPath id="SVGID_2_"><use xlink:href="#SVGID_1_" overflow="visible"/></clipPath><path class="st0" d="M27.1 26.1h2.7c1.2 0 2.1-1 2.1-2.1V2.4c0-1.2-1-2.1-2.1-2.1H2.4C1.2.3.3 1.3.3 2.4V24c0 1.2 1 2.1 2.1 2.1H15M.6 4.1h31"/><path class="st0" d="M17.5 10h11.4v1.9H17.5zM17.5 13.5h11.4v1.9H17.5zM17.5 16.9h11.4v1.9H17.5z"/><path class="st1" d="M3.1 2.1c0 .3-.2.5-.5.5s-.4-.2-.4-.5.2-.5.5-.5.4.3.4.5M4.8 2.1c0 .3-.2.5-.5.5s-.5-.2-.5-.5.2-.5.5-.5c.3.1.5.3.5.5M6.5 2.1c0 .3-.2.5-.5.5s-.5-.2-.5-.5.2-.5.5-.5c.3.1.5.3.5.5"/><path class="st2" d="M24.1 25.3l-7.6-2.5 2.5 7.7 1.3-2.4 2.4 2.6 1.7-1.4-2.7-3zM8.6 16.9s-.5-2.1-1.9-3.1-3.1-1-3.1-1-.3 1.2-.3 2.7"/><path class="st2" d="M8.2 17.2s-.4-1.8-1.8-2.7c-1.3-.9-2.8-.9-2.8-.9M9.3 16.9s.5-2.1 1.9-3.1 3.1-1 3.1-1 .3 1.2.3 2.7"/><path class="st2" d="M9.7 17.2s.4-1.8 1.8-2.7c1.3-.9 2.8-.9 2.8-.9M8.6 16.9h.6M8.2 15.9h1.4"/><path class="st2" d="M3.5 17.1l.2 2.5s3-.7 5.3-.7 5.2.7 5.2.7l.2-2.5M3.6 12.7V9.1l.8.3v3.3M14.2 12.7V9.1l-.7.4v3.3"/><path class="st2" d="M3.3 15.5c0 1.4.5 2.9 2.1 2.9s3.2-1.5 3.2-1.5M14.6 15.5c0 1.4-.5 2.9-2.1 2.9s-3.2-1.5-3.2-1.5"/></svg>