<svg xmlns="http://www.w3.org/2000/svg" xmlns:xlink="http://www.w3.org/1999/xlink" viewBox="0 0 32 26.2"><style>.st0{fill:none;stroke:#914c97;stroke-width:.5;stroke-linecap:round;stroke-linejoin:round;stroke-miterlimit:10}.st0,.st1,.st2{clip-path:url(#SVGID_2_)}.st1{stroke:#f49ac2;stroke-width:.5;stroke-linecap:round;stroke-linejoin:round;stroke-miterlimit:10;fill:none}.st2{fill:#914c97}</style><defs><path id="SVGID_1_" d="M0 0h32v26.2H0z"/></defs><clipPath id="SVGID_2_"><use xlink:href="#SVGID_1_" overflow="visible"/></clipPath><path class="st0" d="M29.7 26c1.2 0 2.1-1 2.1-2.1V2.4c0-1.2-1-2.1-2.1-2.1H2.4C1.2.3.3 1.3.3 2.4v21.5c0 1.2 1 2.1 2.1 2.1h27.3zM.6 4.1h30.8"/><path class="st1" d="M3.9 7.4H7v3H3.9zM8.1 7.4h3.1v3H8.1zM12.3 7.4h3.1v3h-3.1zM16.5 7.4h3.1v3h-3.1zM20.7 7.4h3.1v3h-3.1zM25 7.4h3.1v3H25zM3.9 11.4H7v3H3.9z"/><path class="st0" d="M8.1 11.4h3.1v3H8.1zM12.3 11.4h3.1v3h-3.1zM16.5 11.4h3.1v3h-3.1zM20.7 11.4h3.1v3h-3.1zM25 11.4h3.1v3H25z"/><path class="st1" d="M3.9 15.2H7v3H3.9z"/><path class="st0" d="M8.1 15.2h3.1v3H8.1zM12.3 15.2h3.1v3h-3.1zM16.5 15.2h3.1v3h-3.1zM20.7 15.2h3.1v3h-3.1zM25 15.2h3.1v3H25z"/><path class="st1" d="M3.9 19.2H7v3H3.9z"/><path class="st0" d="M8.1 19.2h3.1v3H8.1zM12.3 19.2h3.1v3h-3.1zM16.5 19.2h3.1v3h-3.1zM20.7 19.2h3.1v3h-3.1zM25 19.2h3.1v3H25z"/><path class="st2" d="M3.1 2.1c0 .3-.2.5-.5.5s-.5-.2-.5-.5.2-.5.5-.5.5.3.5.5M4.8 2.1c0 .3-.2.5-.5.5s-.5-.2-.5-.5.2-.5.5-.5c.3.1.5.3.5.5M6.5 2.1c0 .3-.2.5-.5.5s-.5-.2-.5-.5.2-.5.5-.5c.3.1.5.3.5.5"/></svg>