<svg xmlns="http://www.w3.org/2000/svg" xmlns:xlink="http://www.w3.org/1999/xlink" viewBox="0 0 39.9 34"><style>.st1{clip-path:url(#SVGID_2_);fill:none;stroke:#f49ac2;stroke-width:.5;stroke-linecap:round;stroke-linejoin:round;stroke-miterlimit:10}</style><defs><path id="SVGID_1_" d="M0 0h39.9v34H0z"/></defs><clipPath id="SVGID_2_"><use xlink:href="#SVGID_1_" overflow="visible"/></clipPath><path d="M16.7 4S16.5.2 20.2.2c3.2 0 3.5 2.4 3.5 3.2 0 2.8-4.4 3-4.4 7.7-3.9 2.3-13.3 6-18.5 9.2-1.1.7-.6 2.2.7 2.2h36.9c1.1 0 1.6-1.4.6-1.9l-18.3-9.2" clip-path="url(#SVGID_2_)" fill="none" stroke="#914c97" stroke-width=".5" stroke-linecap="round" stroke-linejoin="round" stroke-miterlimit="10"/><path class="st1" d="M7.2 32.1c.9 1 2.1 1.6 3.6 1.6a4.7 4.7 0 100-9.4c-1.5 0-2.9.8-3.8 1.9v-6.9h10.5"/><circle class="st1" cx="25" cy="25.9" r="7.9"/></svg>