<!-- Generator: Adobe Illustrator 21.0.2, SVG Export Plug-In  -->
<svg version="1.1"
	 xmlns="http://www.w3.org/2000/svg" xmlns:xlink="http://www.w3.org/1999/xlink" xmlns:a="http://ns.adobe.com/AdobeSVGViewerExtensions/3.0/"
	 x="0px" y="0px" width="27.3px" height="24.7px" viewBox="0 0 27.3 24.7" style="enable-background:new 0 0 27.3 24.7;"
	 xml:space="preserve">
<style type="text/css">
	.st0{fill:none;stroke:#000000;stroke-width:2;stroke-linecap:round;stroke-linejoin:round;stroke-miterlimit:10;}
</style>
<defs>
</defs>
<path class="st0" d="M9.4,11.7C4.5,13.5,1,18.2,1,23.7h25.3c0-5.5-3.5-10.1-8.3-11.9"/>
<g>
	<path d="M13.7,2c2.8,0,5.2,2.3,5.2,5.2s-2.3,5.2-5.2,5.2S8.5,10,8.5,7.2S10.8,2,13.7,2 M13.7,0C9.7,0,6.5,3.2,6.5,7.2v0
		c0,3.9,3.2,7.2,7.2,7.2c3.9,0,7.2-3.2,7.2-7.2v0C20.8,3.2,17.6,0,13.7,0L13.7,0z"/>
</g>
</svg>