<!-- Generator: Adobe Illustrator 21.0.2, SVG Export Plug-In  -->
<svg version="1.1"
	 xmlns="http://www.w3.org/2000/svg" xmlns:xlink="http://www.w3.org/1999/xlink" xmlns:a="http://ns.adobe.com/AdobeSVGViewerExtensions/3.0/"
	 x="0px" y="0px" width="161.4px" height="76.7px" viewBox="0 0 161.4 76.7" style="enable-background:new 0 0 161.4 76.7;"
	 xml:space="preserve">
<style type="text/css">
	.st0{fill:#AA6FAF;}
</style>
<defs>
</defs>
<g>
	<path class="st0" d="M110.8,22.5c-16.1-0.5-30.9,15.4-30.9,15.4L57.3,59.2h0c-5,4.5-11.6,7.3-18.9,7.3c-15.6,0-28.2-12.6-28.2-28.2
		c0-14.9,11.6-27.1,26.3-28.1V0C16.2,1,0,17.8,0,38.3c0,21.2,17.2,38.4,38.4,38.4c11.7,0,23.1-5.9,30.6-14l17.5-18.1
		c14.3-14.3,23.9-17.5,31.1-17.5c6,0,11.5,2.9,11.5,2.9S122.8,22.9,110.8,22.5z"/>
	<path class="st0" d="M50.6,22.5c16.1-0.5,30.9,15.4,30.9,15.4l22.7,21.3h0c5,4.5,11.6,7.3,18.9,7.3c15.6,0,28.2-12.6,28.2-28.2
		c0-14.9-11.6-27.1-26.3-28.1V0c20.3,1,36.5,17.8,36.5,38.3c0,21.2-17.2,38.4-38.4,38.4c-11.7,0-23.1-5.9-30.6-14L74.9,44.5
		C60.7,30.3,51.1,27.1,43.8,27.1c-6,0-11.5,2.9-11.5,2.9S38.6,22.9,50.6,22.5z"/>
</g>
</svg>