<svg xmlns="http://www.w3.org/2000/svg" xmlns:xlink="http://www.w3.org/1999/xlink" viewBox="0 0 42.1 21.9"><style>.st0,.st1{clip-path:url(#SVGID_2_);fill:none;stroke:#914c97;stroke-width:.5;stroke-linecap:round;stroke-linejoin:round;stroke-miterlimit:10}.st1{stroke:#f49ac2}</style><defs><path id="SVGID_1_" d="M0 0h42.1v21.9H0z"/></defs><clipPath id="SVGID_2_"><use xlink:href="#SVGID_1_" overflow="visible"/></clipPath><circle class="st0" cx="10.1" cy="18" r="3.7"/><circle class="st0" cx="10.1" cy="18" r="1.8"/><circle class="st0" cx="32.3" cy="18" r="3.7"/><circle class="st0" cx="32.3" cy="18" r="1.8"/><path class="st0" d="M36.4 17.8h4.5l1-3.4h-1.5l-.3-3.1L36 8.6 30 .2H3s-1 0-1.4 1.6c-.3 1.6-.1 11.8-.1 11.8L.2 14v2.2l.6 1h2.6l.7 1h2.2M13.9 18h14.5"/><path class="st0" d="M39.9 12.3H37l.9 2h2.3M1.7 12.3h3l-.9 2H1.5M25.4 10.5h2.2v.7h-2.2M34.1 9c-.1-.3-4.8-6.7-4.8-6.7h-4.1V9h8.9z"/><path class="st0" d="M25.2 9h8.9c-.1.2-1.5 3.4-2.3 5.3M29.4 15.7h-4.2M20.4 15.7h-5.1M20.4 14.7h-5.1M20.4 13.7h-5.1M22.8 17.6V.5"/><path class="st1" d="M8.5 4.2a2.9 2.9 0 000 5.8c1.6 0 3-1 3.4-2.5.2-.5.7-2 2.6-2"/><path class="st1" d="M16.2 4.2a2.9 2.9 0 010 5.8c-1.6 0-3-1-3.4-2.5-.2-.5-.7-2-2.6-2"/></svg>