<svg xmlns="http://www.w3.org/2000/svg" xmlns:xlink="http://www.w3.org/1999/xlink" viewBox="0 0 25.5 34.1"><style>.st0,.st1{clip-path:url(#SVGID_2_);fill:none;stroke:#914c97;stroke-width:.5;stroke-linecap:round;stroke-linejoin:round;stroke-miterlimit:10}.st1{stroke:#f49ac2}</style><defs><path id="SVGID_1_" d="M0 0h25.5v34.1H0z"/></defs><clipPath id="SVGID_2_"><use xlink:href="#SVGID_1_" overflow="visible"/></clipPath><path class="st0" d="M6.6 14.9c-1.7 0-3.1 1.4-3.1 3.1 0 1.7 1.4 3.1 3.1 3.1 1.7 0 3.1-1 3.5-2.6.2-.6.7-2.1 2.7-2.1"/><path class="st0" d="M14.8 14.9c1.7 0 3.1 1.4 3.1 3.1 0 1.7-1.4 3.1-3.1 3.1-1.7 0-3.1-1-3.5-2.6-.2-.6-.7-2.1-2.7-2.1"/><path class="st0" d="M9.3 30.8h-9V5.6h20.8v17.3"/><path class="st1" d="M13 33.9h10.9c.7 0 1.4-.6 1.4-1.4v-6.3c0-.7-.6-1.4-1.4-1.4H13c-.7 0-1.4.6-1.4 1.4v6.3c.1.8.7 1.4 1.4 1.4zM25.2 27.1H11.7M25.2 28.6H11.7M23.7 30.6h-6M23.7 31.9h-3.8"/><path class="st1" d="M14.6 32.5c.7 0 1.2-.6 1.2-1.2 0-.7-.6-1.2-1.2-1.2-.7 0-1.2.6-1.2 1.2 0 .7.5 1.2 1.2 1.2z"/><path class="st0" d="M5 5.1C5 2.4 7.2.3 9.8.3s4.8 2.2 4.8 4.8"/><path class="st0" d="M6.8 5.1C6.8 2.4 9 .3 11.6.3s4.8 2.2 4.8 4.8M21.1 5.6l1.5 2.3v15"/></svg>