<svg xmlns="http://www.w3.org/2000/svg" xmlns:xlink="http://www.w3.org/1999/xlink" viewBox="0 0 36.4 28.4"><style>.st0,.st1{clip-path:url(#SVGID_2_);fill:none;stroke:#f49ac2;stroke-width:.5;stroke-linecap:round;stroke-linejoin:round;stroke-miterlimit:10}.st1{stroke:#914c97}</style><defs><path id="SVGID_1_" d="M0 0h36.4v28.4H0z"/></defs><clipPath id="SVGID_2_"><use xlink:href="#SVGID_1_" overflow="visible"/></clipPath><path class="st0" d="M26.7 26.3a5.38 5.38 0 009.5-3.5 5.38 5.38 0 00-9.7-3.2v-7.9h9.7"/><path class="st1" d="M22.1.2l8 8-13.8 13.7-7.6-.5-.3-7.4z"/><circle transform="rotate(-45 12.92 17.38)" class="st1" cx="12.9" cy="17.4" r="1.8"/><path class="st1" d="M12.9 17.4s-5.3.5-9.1 2.6C-.1 22 0 24.2.4 25c.4.8 4.5 3.9 11.1-2.9"/><path class="st0" d="M21.1 11.4l-2.6 2.5-2.1-2L19 9.3M17.5 12.8l2.5-2.5M18.5 7.9l7.2.7M21.7 4.6l.7 7.2M21.2 20.3l3.4-3.4v11.3"/></svg>