<!-- Generator: Adobe Illustrator 21.0.2, SVG Export Plug-In  -->
<svg version="1.1"
	 xmlns="http://www.w3.org/2000/svg" xmlns:xlink="http://www.w3.org/1999/xlink" xmlns:a="http://ns.adobe.com/AdobeSVGViewerExtensions/3.0/"
	 x="0px" y="0px" width="43.7px" height="58.2px" viewBox="0 0 43.7 58.2" style="enable-background:new 0 0 43.7 58.2;"
	 xml:space="preserve">
<style type="text/css">
	.st0{fill:none;stroke:#FFFFFF;stroke-width:1.5;stroke-linecap:round;stroke-linejoin:round;stroke-miterlimit:10;}
</style>
<defs>
</defs>
<g>
	<path class="st0" d="M11.5,25.4c-2.9,0-5.2,2.3-5.2,5.2s2.3,5.2,5.2,5.2s5.3-1.8,6-4.5c0.4-1,1.3-3.6,4.6-3.6"/>
	<path class="st0" d="M25.2,25.4c2.9,0,5.2,2.3,5.2,5.2s-2.3,5.2-5.2,5.2s-5.3-1.8-6-4.5c-0.4-1-1.3-3.6-4.6-3.6"/>
</g>
<polyline class="st0" points="16,52.2 0.8,52.2 0.8,9.9 36,9.9 36,39 "/>
<g>
	<path class="st0" d="M22.3,57.5h18.4c1.3,0,2.3-1,2.3-2.3V44.5c0-1.3-1-2.3-2.3-2.3H22.3c-1.3,0-2.3,1-2.3,2.3v10.7
		C20,56.4,21,57.5,22.3,57.5z"/>
	<line class="st0" x1="42.9" y1="46" x2="20" y2="46"/>
	<line class="st0" x1="42.9" y1="48.6" x2="20" y2="48.6"/>
	<line class="st0" x1="40.3" y1="52" x2="30.2" y2="52"/>
	<line class="st0" x1="40.3" y1="54.2" x2="34" y2="54.2"/>
	<path class="st0" d="M25,55.2L25,55.2c1.1,0,2.1-0.9,2.1-2.1v0c0-1.1-0.9-2.1-2.1-2.1h0c-1.1,0-2.1,0.9-2.1,2.1v0
		C22.9,54.3,23.9,55.2,25,55.2z"/>
</g>
<g>
	<path class="st0" d="M8.8,8.9c0-4.5,3.6-8.1,8.1-8.1S25,4.4,25,8.9"/>
	<path class="st0" d="M11.8,8.9c0-4.5,3.6-8.1,8.1-8.1S28,4.4,28,8.9"/>
</g>
<polyline class="st0" points="36,9.9 38.5,13.7 38.5,39 "/>
</svg>