<!-- Generator: Adobe Illustrator 21.0.2, SVG Export Plug-In  -->
<svg version="1.1"
	 xmlns="http://www.w3.org/2000/svg" xmlns:xlink="http://www.w3.org/1999/xlink" xmlns:a="http://ns.adobe.com/AdobeSVGViewerExtensions/3.0/"
	 x="0px" y="0px" width="52.2px" height="45.4px" viewBox="0 0 52.2 45.4" style="enable-background:new 0 0 52.2 45.4;"
	 xml:space="preserve">
<style type="text/css">
	.st0{fill:none;stroke:#FFFFFF;stroke-width:1.5;stroke-linecap:round;stroke-linejoin:round;stroke-miterlimit:10;}
</style>
<defs>
</defs>
<ellipse class="st0" cx="31" cy="38.2" rx="5.7" ry="3.1"/>
<path class="st0" d="M36.7,37.9l-0.1,3.1c0,1.6-2.5,2.8-5.7,2.8s-5.7-1.3-5.7-2.8l0.1-3.1"/>
<ellipse class="st0" cx="45.8" cy="38.9" rx="5.7" ry="3.1"/>
<path class="st0" d="M51.5,38.6l-0.1,3.1c0,1.6-2.5,2.8-5.7,2.8s-5.7-1.3-5.7-2.8l0.1-3.1"/>
<polyline class="st0" points="28.2,18 16.3,22.5 0.8,13.4 33.1,0.8 48.5,9.6 36.2,14.8 "/>
<polyline class="st0" points="4.7,16.1 0.8,18.1 15.9,27.2 28,22.5 "/>
<polyline class="st0" points="4.7,21.1 0.8,23.1 15.9,32.3 28,27 "/>
<polyline class="st0" points="4.7,26.1 0.8,28.1 15.9,37.3 28,31.9 "/>
<polyline class="st0" points="36.2,19.5 48.5,13.9 44.5,11.6 "/>
<polyline class="st0" points="36.4,24.1 48.5,18.9 44,16.2 "/>
<polyline class="st0" points="36.3,29 48.5,23.5 44.5,21.3 "/>
<polyline class="st0" points="13.7,8.7 28.6,17.5 28.1,33.3 36,30.1 36.3,14.2 21.2,5.4 "/>
</svg>