<!-- Generator: Adobe Illustrator 21.0.2, SVG Export Plug-In  -->
<svg version="1.1"
	 xmlns="http://www.w3.org/2000/svg" xmlns:xlink="http://www.w3.org/1999/xlink" xmlns:a="http://ns.adobe.com/AdobeSVGViewerExtensions/3.0/"
	 x="0px" y="0px" width="59.4px" height="44.1px" viewBox="0 0 59.4 44.1" style="enable-background:new 0 0 59.4 44.1;"
	 xml:space="preserve">
<style type="text/css">
	.st0{fill:none;stroke:#FFFFFF;stroke-width:1.5;stroke-linecap:round;stroke-linejoin:round;stroke-miterlimit:10;}
	.st1{fill:#FFFFFF;stroke:#FFFFFF;stroke-miterlimit:10;}
</style>
<defs>
</defs>
<polyline class="st0" points="24,38.1 0.8,38.1 0.8,0.8 54,0.8 54,18.7 "/>
<g>
	<path class="st0" d="M30.3,43.4h26.1c1.3,0,2.3-1,2.3-2.3V25.3c0-1.3-1-2.3-2.3-2.3H30.3c-1.3,0-2.3,1-2.3,2.3v15.8
		C28.1,42.3,29.1,43.4,30.3,43.4z"/>
	<line class="st0" x1="58.5" y1="28.1" x2="28.1" y2="28.1"/>
	<line class="st0" x1="58.5" y1="31.5" x2="28.1" y2="31.5"/>
	<line class="st0" x1="55.1" y1="36.1" x2="41.7" y2="36.1"/>
	<line class="st0" x1="55.1" y1="38.9" x2="46.7" y2="38.9"/>
	<path class="st0" d="M34.4,40.4H35c1.4,0,2.5-1.1,2.5-2.5v-0.6c0-1.4-1.1-2.5-2.5-2.5h-0.6c-1.4,0-2.5,1.1-2.5,2.5v0.6
		C31.9,39.2,33.1,40.4,34.4,40.4z"/>
</g>
<line class="st0" x1="0.9" y1="6.4" x2="53.4" y2="6.4"/>
<circle class="st1" cx="4.2" cy="3.6" r="0.8"/>
<circle class="st1" cx="7.2" cy="3.6" r="0.8"/>
<circle class="st1" cx="10.2" cy="3.6" r="0.8"/>
<path class="st0" d="M8.6,11.2c-1.3,0-2.3,1-2.3,2.3s1,2.3,2.3,2.3s2.4-0.8,2.7-2c0.2-0.4,0.6-1.6,2.1-1.6"/>
<path class="st0" d="M14.8,11.2c1.3,0,2.3,1,2.3,2.3s-1,2.3-2.3,2.3s-2.4-0.8-2.7-2c-0.2-0.4-0.6-1.6-2.1-1.6"/>
<line class="st0" x1="22" y1="12.9" x2="49.2" y2="12.9"/>
</svg>